<svg width="161" height="89" viewBox="0 0 161 89" fill="none" xmlns="http://www.w3.org/2000/svg">
<path d="M22.5002 5.98199C22.2033 5.98199 21.9167 5.93672 21.647 5.85278V9.91895H23.3533V5.85278C23.0836 5.93684 22.7971 5.98199 22.5002 5.98199Z" fill="#135693"/>
<path d="M22.5 6.09619C24.1517 6.09619 25.4906 4.75725 25.4906 3.10559C25.4906 1.45393 24.1517 0.11499 22.5 0.11499C20.8484 0.11499 19.5094 1.45393 19.5094 3.10559C19.5094 4.75725 20.8484 6.09619 22.5 6.09619Z" fill="#6BC1DD"/>
<g opacity="0.15">
<path opacity="0.15" d="M22.0267 3.10553C22.0267 1.90374 22.736 0.868027 23.7587 0.392658C23.3759 0.214864 22.9498 0.11499 22.5 0.11499C20.8483 0.11499 19.5094 1.45396 19.5094 3.10553C19.5094 4.75709 20.8483 6.09595 22.5 6.09595C22.9498 6.09595 23.3759 5.99607 23.7587 5.81828C22.736 5.34302 22.0267 4.30731 22.0267 3.10553Z" fill="#440075"/>
</g>
<path d="M41.562 14.5876H39.7985V30.8567H41.562C42.5288 30.8567 43.3199 30.0658 43.3199 29.0989V16.3454C43.3199 15.3787 42.5288 14.5876 41.562 14.5876Z" fill="#9EA7AF"/>
<path d="M5.20129 14.5874H3.32139C2.35459 14.5874 1.56366 15.3784 1.56366 16.3451V29.0985C1.56366 30.0653 2.35459 30.8562 3.32139 30.8562H5.20118L5.20129 14.5874Z" fill="#9EA7AF"/>
<path d="M6.39996 52.1412H3.98429C3.15957 52.1412 2.39344 51.8906 1.75778 51.4614V57.1857C1.75778 57.8303 2.28515 58.3577 2.92967 58.3577H6.39996V52.1412Z" fill="#C5CCD3"/>
<path d="M41.0155 52.1408H38.5999V58.3572H42.0702C42.7148 58.3572 43.2421 57.8298 43.2421 57.1853V51.4612C42.6064 51.8902 41.8402 52.1408 41.0155 52.1408Z" fill="#C5CCD3"/>
<path opacity="0.15" d="M4.21871 57.1854V52.141H3.98427C3.15956 52.141 2.39343 51.8904 1.75778 51.4612V57.1853C1.75778 57.8298 2.28514 58.3572 2.92966 58.3572H5.39059C4.74607 58.3573 4.21871 57.8299 4.21871 57.1854Z" fill="#440075"/>
<path d="M6.40002 43.1816H3.98433C1.78387 43.1816 -3.05176e-05 44.9656 -3.05176e-05 47.1662V48.3381C-3.05176e-05 50.5387 1.78398 52.3225 3.98433 52.3225H6.39991L6.40002 43.1816Z" fill="#E6E9ED"/>
<path d="M41.0155 43.1812H38.5999V52.322H41.0155C43.2161 52.322 44.9999 50.5381 44.9999 48.3377V47.1657C44.9999 44.965 43.216 43.1812 41.0155 43.1812Z" fill="#E6E9ED"/>
<g opacity="0.15">
<path opacity="0.15" d="M2.81255 48.3375V47.1656C2.81255 44.965 4.59644 43.1812 6.79691 43.1812H3.98433C1.78387 43.1812 -3.05176e-05 44.9651 -3.05176e-05 47.1656V48.3375C-3.05176e-05 50.538 1.78398 52.3218 3.98433 52.3218H6.79691C4.59633 52.3218 2.81255 50.538 2.81255 48.3375Z" fill="#440075"/>
</g>
<path d="M26.3903 35.385H18.6106V38.2922H26.3903V35.385Z" fill="#9EA7AF"/>
<path opacity="0.15" d="M21.4455 35.385H18.6106V38.2922H21.4455V35.385Z" fill="#440075"/>
<path d="M31.6511 41.0662V39.1748C31.6511 38.6189 31.1963 38.1641 30.6405 38.1641H14.0182C13.4622 38.1641 13.0074 38.6189 13.0074 39.1748V41.0662H31.6511Z" fill="#C5CCD3"/>
<path opacity="0.15" d="M16.5123 41.0662V39.1748C16.5123 38.6189 16.9671 38.1641 17.5231 38.1641H14.0182C13.4622 38.1641 13.0074 38.6189 13.0074 39.1748V41.0662H16.5123Z" fill="#440075"/>
<path d="M36.9555 40.8674H8.04382C7.07703 40.8674 6.28598 41.6585 6.28598 42.6252V58.3574H38.7134V42.6252C38.7134 41.6585 37.9224 40.8674 36.9555 40.8674Z" fill="#9EA7AF"/>
<g opacity="0.15">
<path opacity="0.15" d="M11.4004 40.8674H8.04382C7.07703 40.8674 6.28598 41.6585 6.28598 42.6252V58.3574H9.64252V42.6252C9.64252 41.6585 10.4336 40.8674 11.4004 40.8674Z" fill="#440075"/>
</g>
<path d="M39.9122 33.7613C39.9122 34.7281 39.1212 35.519 38.1545 35.519H6.84507C5.87839 35.519 5.08734 34.7281 5.08734 33.7613V11.5632C5.08734 10.5964 5.87839 9.80542 6.84507 9.80542H38.1545C39.1212 9.80542 39.9122 10.5964 39.9122 11.5632V33.7613Z" fill="#C5CCD3"/>
<g opacity="0.15">
<path opacity="0.15" d="M8.43729 33.7614V11.5632C8.43729 10.5964 9.22833 9.80542 10.1951 9.80542H6.84507C5.87839 9.80542 5.08734 10.5964 5.08734 11.5632V33.7615C5.08734 34.7283 5.87839 35.5193 6.84507 35.5193H10.1951C9.22833 35.5192 8.43729 34.7282 8.43729 33.7614Z" fill="#440075"/>
</g>
<path d="M35.7526 22.6953C35.7526 26.0487 33.0342 28.7666 29.6811 28.7666H15.3186C11.9653 28.7666 9.24701 26.0486 9.24701 22.6953C9.24701 19.3421 11.9653 16.624 15.3186 16.624H29.6811C33.0342 16.624 35.7526 19.3421 35.7526 22.6953Z" fill="#135693"/>
<g opacity="0.15">
<path opacity="0.15" d="M12.6561 22.6953C12.6561 19.3421 15.3744 16.624 18.7277 16.624H15.3186C11.9653 16.624 9.24701 19.3422 9.24701 22.6953C9.24701 26.0487 11.9653 28.7666 15.3186 28.7666H18.7277C15.3744 28.7666 12.6561 26.0486 12.6561 22.6953Z" fill="#440075"/>
</g>
<path d="M14.7123 25.0698C16.0161 25.0698 17.0731 24.0086 17.0731 22.6996C17.0731 21.3905 16.0161 20.3293 14.7123 20.3293C13.4084 20.3293 12.3514 21.3905 12.3514 22.6996C12.3514 24.0086 13.4084 25.0698 14.7123 25.0698Z" fill="#6BC1DD"/>
<path d="M30.3331 25.0667C31.6369 25.0667 32.6939 24.0055 32.6939 22.6965C32.6939 21.3876 31.6369 20.3264 30.3331 20.3264C29.0292 20.3264 27.9722 21.3876 27.9722 22.6965C27.9722 24.0055 29.0292 25.0667 30.3331 25.0667Z" fill="#6BC1DD"/>
<path d="M32.9737 58.3564V48.1402C32.9737 47.4956 32.4463 46.9683 31.8018 46.9683H13.1984C12.5539 46.9683 12.0266 47.4956 12.0266 48.1402V58.3564H32.9737Z" fill="#135693"/>
<path d="M24.6093 58.3564V55.0613C24.6093 54.868 24.4511 54.7097 24.2578 54.7097H20.7421C20.5489 54.7097 20.3906 54.868 20.3906 55.0613V58.3564H24.6093Z" fill="#FFC502"/>
<path d="M17.578 50.6365H14.8827C14.4115 50.6365 14.0296 50.2546 14.0296 49.7833C14.0296 49.312 14.4115 48.9302 14.8827 48.9302H17.578C18.0493 48.9302 18.4312 49.312 18.4312 49.7833C18.4312 50.2545 18.0493 50.6365 17.578 50.6365Z" fill="#C5CCD3"/>
<path d="M16.4063 52.7178H14.8828C14.4115 52.7178 14.0296 52.3359 14.0296 51.8646C14.0296 51.3933 14.4115 51.0115 14.8828 51.0115H16.4063C16.8776 51.0115 17.2595 51.3933 17.2595 51.8646C17.2595 52.3359 16.8775 52.7178 16.4063 52.7178Z" fill="#C5CCD3"/>
<path d="M17.5781 54.8025H14.8828C14.4115 54.8025 14.0296 54.4204 14.0296 53.9491C14.0296 53.4777 14.4115 53.0957 14.8828 53.0957H17.5781C18.0493 53.0957 18.4312 53.4777 18.4312 53.9491C18.4312 54.4205 18.0493 54.8025 17.5781 54.8025Z" fill="#C5CCD3"/>
<path d="M16.0547 56.8838H14.8828C14.4115 56.8838 14.0296 56.5019 14.0296 56.0305C14.0296 55.5593 14.4115 55.1772 14.8828 55.1772H16.0547C16.5259 55.1772 16.9078 55.5593 16.9078 56.0305C16.9078 56.5019 16.5258 56.8838 16.0547 56.8838Z" fill="#C5CCD3"/>
<path d="M29.7301 56.0278H27.6498C27.1562 56.0278 26.7562 55.6278 26.7562 55.1341C26.7562 54.6404 27.1563 54.2405 27.6498 54.2405H29.7301C30.2237 54.2405 30.6239 54.6405 30.6239 55.1341C30.6239 55.6279 30.2237 56.0278 29.7301 56.0278Z" fill="#E6E9ED"/>
<path d="M28.6906 52.9307C29.7272 52.9307 30.5676 52.0903 30.5676 51.0537C30.5676 50.0171 29.7272 49.1768 28.6906 49.1768C27.654 49.1768 26.8137 50.0171 26.8137 51.0537C26.8137 52.0903 27.654 52.9307 28.6906 52.9307Z" fill="#5DC647"/>
<path d="M24.6615 52.0365C24.6615 52.2347 24.4994 52.3967 24.3014 52.3967H20.699C20.5009 52.3967 20.3388 52.2347 20.3388 52.0365V50.0725C20.3388 49.8743 20.5009 49.7122 20.699 49.7122H24.3014C24.4994 49.7122 24.6615 49.8743 24.6615 50.0725V52.0365Z" fill="#6BC1DD"/>
<path d="M9.98977 83.1895L8.8518 80.025H4.49479L3.38021 83.1895H1.41605L5.67952 71.7474H7.70604L11.9695 83.1895H9.98977ZM8.36076 78.4193L7.29294 75.3172C7.215 75.1094 7.10588 74.782 6.96558 74.3351C6.83048 73.8883 6.73695 73.5609 6.68499 73.3531C6.54469 73.9922 6.33944 74.6911 6.06924 75.4497L5.04039 78.4193H8.36076ZM17.6516 74.4131C18.0205 74.4131 18.3245 74.4391 18.5635 74.491L18.3842 76.198C18.1244 76.1356 17.8542 76.1044 17.5736 76.1044C16.8409 76.1044 16.246 76.3435 15.7887 76.8215C15.3367 77.2996 15.1106 77.9205 15.1106 78.6844V83.1895H13.279V74.569H14.7131L14.9547 76.0889H15.0483C15.3341 75.5744 15.7056 75.1665 16.1628 74.8652C16.6253 74.5638 17.1215 74.4131 17.6516 74.4131ZM23.3804 81.8644C23.8272 81.8644 24.2741 81.7943 24.721 81.654V83.0336C24.5183 83.1219 24.2559 83.1946 23.9338 83.2518C23.6168 83.3142 23.2868 83.3453 22.9439 83.3453C21.2084 83.3453 20.3406 82.4308 20.3406 80.6017V75.9564H19.1636V75.1457L20.4263 74.4754L21.0499 72.6516H22.18V74.569H24.6352V75.9564H22.18V80.5706C22.18 81.0122 22.2892 81.3396 22.5074 81.5527C22.7308 81.7605 23.0218 81.8644 23.3804 81.8644ZM28.283 83.1895H26.4513V74.569H28.283V83.1895ZM26.3422 72.2852C26.3422 71.9579 26.4305 71.7059 26.6072 71.5292C26.7891 71.3525 27.0463 71.2642 27.3788 71.2642C27.701 71.2642 27.9504 71.3525 28.1271 71.5292C28.3089 71.7059 28.3999 71.9579 28.3999 72.2852C28.3999 72.597 28.3089 72.8438 28.1271 73.0257C27.9504 73.2024 27.701 73.2907 27.3788 73.2907C27.0463 73.2907 26.7891 73.2024 26.6072 73.0257C26.4305 72.8438 26.3422 72.597 26.3422 72.2852ZM35.2355 75.9564H33.131V83.1895H31.2916V75.9564H29.873V75.099L31.2916 74.5378V73.9766C31.2916 72.9581 31.5306 72.2047 32.0086 71.7163C32.4867 71.2226 33.2168 70.9758 34.1988 70.9758C34.8432 70.9758 35.4771 71.0823 36.1006 71.2954L35.6174 72.6827C35.1653 72.5373 34.734 72.4645 34.3235 72.4645C33.9078 72.4645 33.6039 72.5944 33.4116 72.8542C33.2245 73.1088 33.131 73.4934 33.131 74.0078V74.569H35.2355V75.9564ZM38.5325 83.1895H36.7008V74.569H38.5325V83.1895ZM36.5917 72.2852C36.5917 71.9579 36.68 71.7059 36.8567 71.5292C37.0386 71.3525 37.2958 71.2642 37.6283 71.2642C37.9505 71.2642 38.1999 71.3525 38.3766 71.5292C38.5584 71.7059 38.6494 71.9579 38.6494 72.2852C38.6494 72.597 38.5584 72.8438 38.3766 73.0257C38.1999 73.2024 37.9505 73.2907 37.6283 73.2907C37.2958 73.2907 37.0386 73.2024 36.8567 73.0257C36.68 72.8438 36.5917 72.597 36.5917 72.2852ZM44.6432 83.3453C43.3389 83.3453 42.3465 82.966 41.6658 82.2074C40.9903 81.4435 40.6525 80.3497 40.6525 78.926C40.6525 77.4762 41.0058 76.3617 41.7125 75.5822C42.4244 74.8028 43.4507 74.4131 44.7913 74.4131C45.7006 74.4131 46.519 74.582 47.2465 74.9197L46.6931 76.3928C45.9189 76.0915 45.2797 75.9408 44.7757 75.9408C43.2844 75.9408 42.5387 76.9306 42.5387 78.9104C42.5387 79.8769 42.7232 80.6043 43.0921 81.0928C43.4662 81.576 44.0118 81.8177 44.7289 81.8177C45.5447 81.8177 46.3164 81.615 47.0438 81.2097V82.8075C46.7165 82.9998 46.3657 83.1375 45.9916 83.2206C45.6227 83.3038 45.1732 83.3453 44.6432 83.3453ZM50.902 83.1895H49.0703V74.569H50.902V83.1895ZM48.9612 72.2852C48.9612 71.9579 49.0496 71.7059 49.2262 71.5292C49.4081 71.3525 49.6653 71.2642 49.9979 71.2642C50.32 71.2642 50.5694 71.3525 50.7461 71.5292C50.928 71.7059 51.0189 71.9579 51.0189 72.2852C51.0189 72.597 50.928 72.8438 50.7461 73.0257C50.5694 73.2024 50.32 73.2907 49.9979 73.2907C49.6653 73.2907 49.4081 73.2024 49.2262 73.0257C49.0496 72.8438 48.9612 72.597 48.9612 72.2852ZM58.9223 83.1895L58.556 81.9891H58.4936C58.0779 82.5139 57.6597 82.8725 57.2388 83.0647C56.8179 83.2518 56.2775 83.3453 55.6175 83.3453C54.7706 83.3453 54.1081 83.1167 53.63 82.6594C53.1572 82.2022 52.9207 81.5553 52.9207 80.7187C52.9207 79.8301 53.2507 79.1598 53.9106 78.7077C54.5705 78.2557 55.576 78.0088 56.927 77.9673L58.4157 77.9205V77.4606C58.4157 76.9099 58.2858 76.4994 58.026 76.2292C57.7714 75.9538 57.3739 75.8161 56.8335 75.8161C56.3918 75.8161 55.9683 75.881 55.563 76.0109C55.1577 76.1408 54.768 76.2941 54.3938 76.4708L53.8015 75.1613C54.2691 74.9171 54.781 74.7326 55.337 74.6079C55.8929 74.478 56.4178 74.4131 56.9114 74.4131C58.0078 74.4131 58.834 74.6521 59.39 75.1302C59.9512 75.6082 60.2318 76.3591 60.2318 77.3827V83.1895H58.9223ZM56.1943 81.9424C56.8594 81.9424 57.392 81.7579 57.7922 81.389C58.1975 81.0148 58.4001 80.4926 58.4001 79.8223V79.0741L57.2933 79.1208C56.4308 79.152 55.802 79.2975 55.4071 79.5573C55.0174 79.8119 54.8225 80.2042 54.8225 80.7343C54.8225 81.1188 54.9368 81.4176 55.1655 81.6306C55.3941 81.8384 55.7371 81.9424 56.1943 81.9424ZM64.62 83.1895H62.7883V71.0615H64.62V83.1895ZM71.5881 83.1895V71.7942H73.4509V83.1895H71.5881ZM83.8563 83.1895H82.0168V77.8893C82.0168 77.2242 81.8817 76.728 81.6115 76.4006C81.3465 76.0733 80.923 75.9096 80.341 75.9096C79.5668 75.9096 79.0004 76.1382 78.6419 76.5955C78.2833 77.0527 78.1041 77.8192 78.1041 78.8948V83.1895H76.2724V74.569H77.7066L77.9638 75.6991H78.0573C78.3171 75.2886 78.686 74.9717 79.1641 74.7482C79.6421 74.5248 80.1722 74.4131 80.7541 74.4131C82.8222 74.4131 83.8563 75.4653 83.8563 77.5698V83.1895ZM89.6162 81.8644C90.0631 81.8644 90.51 81.7943 90.9569 81.654V83.0336C90.7542 83.1219 90.4918 83.1946 90.1696 83.2518C89.8527 83.3142 89.5227 83.3453 89.1798 83.3453C87.4442 83.3453 86.5765 82.4308 86.5765 80.6017V75.9564H85.3995V75.1457L86.6622 74.4754L87.2858 72.6516H88.4159V74.569H90.8711V75.9564H88.4159V80.5706C88.4159 81.0122 88.525 81.3396 88.7433 81.5527C88.9667 81.7605 89.2577 81.8644 89.6162 81.8644ZM96.4518 83.3453C95.1112 83.3453 94.0616 82.9556 93.3029 82.1762C92.5495 81.3916 92.1728 80.3134 92.1728 78.9416C92.1728 77.5334 92.5235 76.4266 93.225 75.6212C93.9265 74.8158 94.8904 74.4131 96.1167 74.4131C97.2546 74.4131 98.1536 74.7586 98.8135 75.4497C99.4734 76.1408 99.8034 77.0917 99.8034 78.3024V79.2923H94.059C94.085 80.1289 94.311 80.7732 94.7371 81.2253C95.1632 81.6722 95.7633 81.8956 96.5376 81.8956C97.0468 81.8956 97.5197 81.8488 97.9561 81.7553C98.3978 81.6566 98.8707 81.4955 99.3747 81.2721V82.7608C98.9278 82.9738 98.4758 83.1245 98.0185 83.2128C97.5612 83.3012 97.039 83.3453 96.4518 83.3453ZM96.1167 75.8005C95.5347 75.8005 95.0671 75.9849 94.7137 76.3539C94.3656 76.7228 94.1577 77.2606 94.0902 77.9673H98.0029C97.9925 77.2554 97.821 76.7176 97.4885 76.3539C97.1559 75.9849 96.6987 75.8005 96.1167 75.8005ZM103.716 83.1895H101.884V71.0615H103.716V83.1895ZM108.174 83.1895H106.343V71.0615H108.174V83.1895ZM112.633 83.1895H110.801V74.569H112.633V83.1895ZM110.692 72.2852C110.692 71.9579 110.78 71.7059 110.957 71.5292C111.139 71.3525 111.396 71.2642 111.729 71.2642C112.051 71.2642 112.3 71.3525 112.477 71.5292C112.659 71.7059 112.75 71.9579 112.75 72.2852C112.75 72.597 112.659 72.8438 112.477 73.0257C112.3 73.2024 112.051 73.2907 111.729 73.2907C111.396 73.2907 111.139 73.2024 110.957 73.0257C110.78 72.8438 110.692 72.597 110.692 72.2852ZM122.539 74.569V75.5744L121.066 75.8472C121.201 76.0291 121.313 76.2525 121.401 76.5175C121.49 76.7825 121.534 77.0631 121.534 77.3593C121.534 78.2479 121.227 78.9468 120.614 79.456C120.001 79.9652 119.157 80.2198 118.081 80.2198C117.806 80.2198 117.556 80.199 117.333 80.1575C116.938 80.4017 116.74 80.6875 116.74 81.0148C116.74 81.2123 116.831 81.3604 117.013 81.4591C117.2 81.5578 117.541 81.6072 118.034 81.6072H119.539C120.489 81.6072 121.212 81.8099 121.705 82.2152C122.199 82.6205 122.446 83.205 122.446 83.9689C122.446 84.9458 122.043 85.6992 121.238 86.2292C120.432 86.7592 119.268 87.0242 117.746 87.0242C116.571 87.0242 115.675 86.8164 115.057 86.4007C114.438 85.985 114.129 85.3926 114.129 84.6236C114.129 84.0936 114.296 83.6467 114.628 83.283C114.966 82.9244 115.436 82.675 116.039 82.5347C115.795 82.4308 115.592 82.2645 115.431 82.0359C115.275 81.8021 115.197 81.5578 115.197 81.3032C115.197 80.9811 115.288 80.7083 115.47 80.4848C115.652 80.2614 115.922 80.0406 116.281 79.8223C115.834 79.6301 115.47 79.3183 115.189 78.887C114.914 78.4505 114.776 77.9413 114.776 77.3593C114.776 76.424 115.07 75.6991 115.657 75.1847C116.249 74.6703 117.091 74.4131 118.182 74.4131C118.427 74.4131 118.681 74.4313 118.946 74.4676C119.216 74.4988 119.419 74.5326 119.554 74.569H122.539ZM115.766 84.5301C115.766 84.925 115.943 85.229 116.296 85.442C116.655 85.655 117.156 85.7616 117.8 85.7616C118.798 85.7616 119.541 85.6187 120.03 85.3329C120.518 85.0471 120.762 84.6678 120.762 84.1949C120.762 83.8208 120.627 83.5532 120.357 83.3921C120.092 83.2362 119.596 83.1583 118.868 83.1583H117.481C116.956 83.1583 116.538 83.2804 116.226 83.5246C115.919 83.774 115.766 84.1092 115.766 84.5301ZM116.553 77.3593C116.553 77.8997 116.691 78.3154 116.966 78.6064C117.247 78.8974 117.647 79.0429 118.167 79.0429C119.227 79.0429 119.757 78.4765 119.757 77.3437C119.757 76.7825 119.624 76.3513 119.359 76.0499C119.099 75.7433 118.702 75.59 118.167 75.59C117.637 75.59 117.234 75.7407 116.959 76.0421C116.688 76.3435 116.553 76.7825 116.553 77.3593ZM127.91 83.3453C126.569 83.3453 125.519 82.9556 124.761 82.1762C124.007 81.3916 123.631 80.3134 123.631 78.9416C123.631 77.5334 123.981 76.4266 124.683 75.6212C125.384 74.8158 126.348 74.4131 127.574 74.4131C128.712 74.4131 129.611 74.7586 130.271 75.4497C130.931 76.1408 131.261 77.0917 131.261 78.3024V79.2923H125.517C125.543 80.1289 125.769 80.7732 126.195 81.2253C126.621 81.6722 127.221 81.8956 127.995 81.8956C128.505 81.8956 128.977 81.8488 129.414 81.7553C129.856 81.6566 130.328 81.4955 130.832 81.2721V82.7608C130.386 82.9738 129.934 83.1245 129.476 83.2128C129.019 83.3012 128.497 83.3453 127.91 83.3453ZM127.574 75.8005C126.992 75.8005 126.525 75.9849 126.171 76.3539C125.823 76.7228 125.615 77.2606 125.548 77.9673H129.461C129.45 77.2554 129.279 76.7176 128.946 76.3539C128.614 75.9849 128.156 75.8005 127.574 75.8005ZM140.926 83.1895H139.087V77.8893C139.087 77.2242 138.952 76.728 138.681 76.4006C138.416 76.0733 137.993 75.9096 137.411 75.9096C136.637 75.9096 136.07 76.1382 135.712 76.5955C135.353 77.0527 135.174 77.8192 135.174 78.8948V83.1895H133.342V74.569H134.776L135.034 75.6991H135.127C135.387 75.2886 135.756 74.9717 136.234 74.7482C136.712 74.5248 137.242 74.4131 137.824 74.4131C139.892 74.4131 140.926 75.4653 140.926 77.5698V83.1895ZM146.951 83.3453C145.647 83.3453 144.654 82.966 143.974 82.2074C143.298 81.4435 142.96 80.3497 142.96 78.926C142.96 77.4762 143.314 76.3617 144.02 75.5822C144.732 74.8028 145.759 74.4131 147.099 74.4131C148.008 74.4131 148.827 74.582 149.554 74.9197L149.001 76.3928C148.227 76.0915 147.588 75.9408 147.084 75.9408C145.592 75.9408 144.847 76.9306 144.847 78.9104C144.847 79.8769 145.031 80.6043 145.4 81.0928C145.774 81.576 146.32 81.8177 147.037 81.8177C147.853 81.8177 148.624 81.615 149.352 81.2097V82.8075C149.024 82.9998 148.674 83.1375 148.299 83.2206C147.931 83.3038 147.481 83.3453 146.951 83.3453ZM155.143 83.3453C153.802 83.3453 152.753 82.9556 151.994 82.1762C151.241 81.3916 150.864 80.3134 150.864 78.9416C150.864 77.5334 151.215 76.4266 151.916 75.6212C152.618 74.8158 153.581 74.4131 154.808 74.4131C155.946 74.4131 156.845 74.7586 157.505 75.4497C158.164 76.1408 158.494 77.0917 158.494 78.3024V79.2923H152.75C152.776 80.1289 153.002 80.7732 153.428 81.2253C153.854 81.6722 154.454 81.8956 155.229 81.8956C155.738 81.8956 156.211 81.8488 156.647 81.7553C157.089 81.6566 157.562 81.4955 158.066 81.2721V82.7608C157.619 82.9738 157.167 83.1245 156.71 83.2128C156.252 83.3012 155.73 83.3453 155.143 83.3453ZM154.808 75.8005C154.226 75.8005 153.758 75.9849 153.405 76.3539C153.057 76.7228 152.849 77.2606 152.781 77.9673H156.694C156.684 77.2554 156.512 76.7176 156.179 76.3539C155.847 75.9849 155.39 75.8005 154.808 75.8005Z" fill="#3A68B8"/>
</svg>
